<svg id="Layer_1" data-name="Layer 1" xmlns="http://www.w3.org/2000/svg" viewBox="0 0 120.49 105.97"><path d="M105.77,77.68a2.49,2.49,0,0,0-3.53,0L71.89,108,59,95.12a2.49,2.49,0,0,0-3.53,0L29.24,121.34a2.5,2.5,0,0,0,0,3.54,2.45,2.45,0,0,0,1.76.73,2.49,2.49,0,0,0,1.77-.73l24.46-24.46,12.9,12.9a2.46,2.46,0,0,0,1.76.74,2.5,2.5,0,0,0,1.77-.74l32.11-32.11A2.49,2.49,0,0,0,105.77,77.68Z" transform="translate(-28.5 -37.01)"/><path d="M141.35,37H81.46l.61,11.52H134.9a59.25,59.25,0,0,0-3.22,7.84L101.88,143H115.4l33-96.61C150.26,40.55,147.65,37,141.35,37Z" transform="translate(-28.5 -37.01)"/></svg>